<?xml version="1.0" encoding="UTF-8" standalone="no"?>
<svg
   style="enable-background:new"
   width="32"
   height="32"
   version="1.1"
   id="svg63"
   sodipodi:docname="list.svg"
   inkscape:version="1.2.2 (b0a8486541, 2022-12-01)"
   xmlns:inkscape="http://www.inkscape.org/namespaces/inkscape"
   xmlns:sodipodi="http://sodipodi.sourceforge.net/DTD/sodipodi-0.dtd"
   xmlns="http://www.w3.org/2000/svg"
   xmlns:svg="http://www.w3.org/2000/svg"
   xmlns:osb="http://www.openswatchbook.org/uri/2009/osb">
  <sodipodi:namedview
     id="namedview65"
     pagecolor="#ffffff"
     bordercolor="#000000"
     borderopacity="0.25"
     inkscape:showpageshadow="2"
     inkscape:pageopacity="0.0"
     inkscape:pagecheckerboard="0"
     inkscape:deskcolor="#d1d1d1"
     showgrid="false"
     inkscape:zoom="23.15625"
     inkscape:cx="11.746289"
     inkscape:cy="15.978408"
     inkscape:window-width="1920"
     inkscape:window-height="1008"
     inkscape:window-x="0"
     inkscape:window-y="0"
     inkscape:window-maximized="1"
     inkscape:current-layer="svg63" />
  <defs
     id="defs4">
    <linearGradient
       id="linearGradient5606"
       osb:paint="solid">
      <stop
         id="stop5608"
         offset="0"
         style="stop-color:#000000" />
    </linearGradient>
  </defs>
  <g
     id="22-22-list-remove"
     transform="translate(-253,-17)"
     style="enable-background:new">
    <rect
       style="opacity:0"
       width="22"
       height="22"
       x="285"
       y="-5"
       id="rect6-3" />
    <path
       style="fill:#cfd8dc"
       d="m 288,4 v 4 h 16 V 4 Z"
       id="path8-6"
       sodipodi:nodetypes="ccccc" />
  </g>
  <g
     id="22-22-list-add"
     transform="translate(-253.00081,15.00334)">
    <path
       style="opacity:0"
       d="m 285.00081,-5.00334 h 22 v 22 h -22 z"
       id="path14" />
    <path
       style="fill:#cfd8dc"
       d="M 9,3 V 9 H 3 v 4 h 6 v 6 h 4 v -6 h 6 V 9 H 13 V 3 Z"
       transform="translate(285.00081,-5.00334)"
       id="path16" />
  </g>
  <g
     id="16-16-list-remove"
     transform="translate(-252,10)"
     style="enable-background:new">
    <rect
       style="opacity:0;fill:#39ffff"
       width="16"
       height="16"
       x="306"
       y="-26"
       id="rect19" />
    <g
       style="enable-background:new"
       transform="translate(306.00095,-26.00332)"
       id="g24">
      <g
         id="layer12-3"
         transform="translate(-445.0004,119.00336)">
        <path
           style="fill:#cfd8dc"
           d="m 445.99945,-112.00004 v 2 h 14 v -2 z"
           id="path21"
           sodipodi:nodetypes="ccccc" />
      </g>
    </g>
  </g>
  <g
     id="16-16-list-add"
     transform="translate(-234,42)">
    <rect
       style="opacity:0;fill:#39ffff"
       width="16"
       height="16"
       x="288"
       y="-26"
       id="rect27" />
    <g
       style="enable-background:new"
       transform="translate(288.00081,-26.00334)"
       id="g32">
      <g
         id="layer12-21"
         transform="translate(-285.00081,-0.99666)">
        <path
           style="fill:#cfd8dc"
           d="m 292.00081,1.99666 v 6 h -6 v 2 h 6 v 6 h 2 v -6 h 6 v -2 h -6 v -6 z"
           id="path29" />
      </g>
    </g>
  </g>
  <g
     id="list-add">
    <rect
       width="32"
       height="32"
       x="0"
       y="0"
       style="opacity:0.001"
       id="rect35" />
    <rect
       style="opacity:0.2"
       width="6"
       height="28"
       x="13"
       y="3"
       rx="2"
       ry="2"
       id="rect37" />
    <rect
       width="6"
       height="28"
       x="13"
       y="2"
       rx="2"
       ry="2"
       style="fill:#309930"
       id="rect39" />
    <rect
       width="6"
       height="28"
       x="14"
       y="-30"
       rx="2"
       ry="2"
       transform="rotate(90)"
       style="opacity:0.2"
       id="rect41" />
    <rect
       style="fill:#24c65b"
       width="6"
       height="28"
       x="13"
       y="-30"
       rx="2"
       ry="2"
       transform="rotate(90)"
       id="rect43" />
    <path
       d="M 15 2 C 13.892 2 13 2.892 13 4 L 13 5 C 13 3.892 13.892 3 15 3 L 17 3 C 18.108 3 19 3.892 19 5 L 19 4 C 19 2.892 18.108 2 17 2 L 15 2 z"
       style="opacity:0.1;fill:#ffffff"
       id="path45" />
    <path
       d="M 4 13 C 2.892 13 2 13.892 2 15 L 2 16 C 2 14.892 2.892 14 4 14 L 28 14 C 29.108 14 30 14.892 30 16 L 30 15 C 30 13.892 29.108 13 28 13 L 4 13 z"
       style="opacity:0.2;fill:#ffffff"
       id="path47" />
  </g>
  <g
     style="enable-background:new"
     id="list-remove"
     transform="translate(0,-32)">
    <rect
       width="32"
       height="32"
       x="0"
       y="0"
       rx="2.3759999"
       ry="2.0869999"
       style="opacity:0.00100002"
       id="rect50" />
    <rect
       width="6"
       height="28"
       x="14"
       y="-30"
       rx="2"
       ry="2"
       transform="rotate(90)"
       style="opacity:0.2;enable-background:new"
       id="rect51" />
    <rect
       style="fill:#c2352a;fill-opacity:1;enable-background:new"
       width="6"
       height="28"
       x="13"
       y="-30"
       rx="2"
       ry="2"
       transform="rotate(90)"
       id="rect52" />
    <path
       d="m 4,13 c -1.108,0 -2,0.892 -2,2 v 1 c 0,-1.108 0.892,-2 2,-2 h 24 c 1.108,0 2,0.892 2,2 v -1 c 0,-1.108 -0.892,-2 -2,-2 z"
       style="opacity:0.2;fill:#ffffff;enable-background:new"
       id="path48" />
  </g>
</svg>
